<?xml version="1.0" encoding="UTF-8"?>
<svg id="Layer_1" data-name="Layer 1" xmlns="http://www.w3.org/2000/svg" viewBox="0 0 707.66 163.77">
  <defs>
    <style>
      .cls-1 {
        fill: #000;
      }

      .cls-1, .cls-2, .cls-3 {
        stroke-width: 0px;
      }

      .cls-2 {
        fill: #f80700;
      }

      .cls-3 {
        fill: #fff;
      }
    </style>
  </defs>
  <path class="cls-2" d="M81.88,0h0C36.66,0,0,36.66,0,81.88s36.66,81.88,81.88,81.88h0c45.22,0,81.88-36.66,81.88-81.88S127.11,0,81.88,0Z"/>
  <path class="cls-3" d="M111.79,120.63c-7.37,4.17-15.95,6.25-25.75,6.25-13.4,0-24.75-3.75-34.05-11.25-9.3-7.5-13.95-17.85-13.95-31.05,0-13.87,5.07-25.03,15.2-33.5,10.13-8.47,23.27-12.7,39.4-12.7,10,0,17.92,1.83,23.75,5.5,5.83,3.67,8.75,8.5,8.75,14.5,0,3.4-1.15,6.38-3.45,8.95-2.3,2.57-5.28,3.85-8.95,3.85-7.27,0-11.9-4.73-13.9-14.2-.6-2.8-1.5-4.8-2.7-6-1.2-1.2-3.27-1.8-6.2-1.8-5.93,0-10.38,2.35-13.35,7.05-2.97,4.7-4.45,11.75-4.45,21.15,0,12.87,1.78,22.12,5.35,27.75,3.57,5.63,9.15,8.45,16.75,8.45,10.4,0,17.93-5.07,22.6-15.2l10.2,4.5c-2.8,7.67-7.88,13.58-15.25,17.75Z"/>
  <g>
    <path class="cls-1" d="M309.03,99.32l10.24,4.52c-2.81,7.7-7.91,13.64-15.31,17.82-7.4,4.18-16.01,6.27-25.85,6.27-13.45,0-24.85-3.76-34.18-11.29-9.34-7.53-14-17.92-14-31.17,0-13.92,5.09-25.13,15.26-33.63,10.17-8.5,23.36-12.75,39.55-12.75,10.04,0,17.99,1.84,23.84,5.52s8.78,8.53,8.78,14.56c0,3.41-1.15,6.41-3.46,8.98s-5.3,3.86-8.98,3.86c-7.29,0-11.95-4.75-13.95-14.25-.6-2.81-1.51-4.82-2.71-6.02-1.2-1.2-3.28-1.81-6.22-1.81-5.96,0-10.42,2.36-13.4,7.08-2.98,4.72-4.47,11.8-4.47,21.23,0,12.92,1.79,22.2,5.37,27.86,3.58,5.66,9.19,8.48,16.81,8.48,10.44,0,18-5.09,22.69-15.26Z"/>
    <path class="cls-1" d="M373.22,59.76c3.88-6.89,8.3-12.06,13.25-15.51s10.41-5.17,16.36-5.17,10.01,1.79,12.95,5.37c2.94,3.58,4.42,7.48,4.42,11.7,0,3.95-1.17,7.33-3.51,10.14-2.34,2.81-5.62,4.22-9.84,4.22-2.28,0-4.15-.44-5.62-1.31s-3.41-2.68-5.82-5.42c-2.41-2.68-5.02-4.02-7.83-4.02-4.35,0-7.61,2.66-9.79,7.98-2.18,5.32-3.26,13.3-3.26,23.94v8.93c0,4.95.77,8.42,2.31,10.39,1.54,1.97,5.09,2.96,10.64,2.96h2.01v10.64h-60.93v-10.64c5.82,0,9.5-.97,11.04-2.91,1.54-1.94,2.31-5.42,2.31-10.44v-28.71c0-5.09-.79-8.58-2.36-10.49s-5.3-2.86-11.19-2.86v-10.64l41.66-8.83c1.87,5.42,2.94,12.31,3.21,20.68Z"/>
    <path class="cls-1" d="M486.41,115.88c-4.89,3.55-9.99,6.21-15.31,7.98-5.32,1.77-10.89,2.66-16.71,2.66-7.7,0-13.47-1.74-17.32-5.22s-5.77-7.8-5.77-12.95c0-7.29,3.85-13.75,11.54-19.37,7.7-5.62,21.62-11.85,41.76-18.67v-7.43c0-5.29-1.27-8.68-3.81-10.19-2.54-1.51-5.55-2.26-9.03-2.26-8.43,0-13.12,3.08-14.05,9.24-.67,4.22-2.01,7.28-4.02,9.19-2.01,1.91-5.12,2.86-9.34,2.86-3.81,0-6.84-1.02-9.08-3.06-2.24-2.04-3.36-4.43-3.36-7.18,0-6.22,4.12-11.51,12.35-15.86,8.23-4.35,19.24-6.53,33.03-6.53,7.7,0,14.14.47,19.32,1.41s9.37,2.68,12.55,5.22c3.18,2.54,5.29,5.22,6.32,8.03s1.56,6.63,1.56,11.44v38.15c0,5.76,1.74,8.63,5.22,8.63,3.01,0,4.92-1.87,5.72-5.62h8.33c-.2,6.89-2.73,11.98-7.58,15.26-4.85,3.28-10.66,4.92-17.42,4.92-12.31,0-20.61-3.55-24.9-10.64ZM484.6,105.04v-23.49c-9.3,3.88-15.38,7.4-18.22,10.54-2.84,3.15-4.27,6.39-4.27,9.74,0,2.54.84,4.84,2.51,6.88,1.67,2.04,3.88,3.06,6.63,3.06,2.41,0,4.72-.57,6.93-1.71,2.21-1.14,4.35-2.81,6.42-5.02Z"/>
    <path class="cls-1" d="M582.57,53.24v42.87c0,7.16.47,11.9,1.41,14.2.94,2.31,2.88,3.46,5.82,3.46,4.42,0,7.96-2.74,10.64-8.23l9.84,3.31c-5.09,12.72-15.96,19.07-32.63,19.07-9.17,0-16.06-2.23-20.68-6.68s-6.93-11.13-6.93-20.03v-47.98h-11.95v-10.84l2.51.1c8.1,0,15.02-2.58,20.78-7.73s9.24-11.71,10.44-19.68h10.74v27.31h24.7v10.84h-24.7Z"/>
    <path class="cls-1" d="M651.64,82.55c0,10.91,1.86,19.11,5.57,24.59,3.71,5.49,9.29,8.23,16.71,8.23,7.9,0,15.16-4.02,21.78-12.05l9.34,5.62c-3.81,5.49-9.29,10.02-16.41,13.6-7.13,3.58-15.01,5.37-23.64,5.37-13.25,0-24.59-4.03-34.03-12.1-9.44-8.06-14.15-18.96-14.15-32.68s4.57-24.49,13.7-32.32c9.14-7.83,20.13-11.75,32.98-11.75s23.51,3.6,31.77,10.79c8.27,7.19,12.4,18.09,12.4,32.68h-56.02ZM651.54,72.41h25.4c-.4-14.79-4.72-22.19-12.95-22.19-4.15,0-7.26,1.84-9.34,5.52-2.07,3.68-3.11,9.24-3.11,16.66Z"/>
  </g>
</svg>